<svg xmlns="http://www.w3.org/2000/svg" height="800" width="1200" xml:space="preserve" y="0" x="0" id="Layer_1" version="1.1" viewBox="-18 -30 156 180"><style id="style2" type="text/css">.st3{fill:#2d4f8d}.st4{fill:#d5d7d8}.st7{fill:#4c4c4c}</style><g transform="translate(-3.3 -3.3)" id="g41"><g id="g33"><circle id="circle4" r="60" cy="63.3" cx="63.3" fill="#de5833"/><path id="path6" d="M114.1 41.8c-2.8-6.6-6.8-12.5-11.8-17.5-5.1-5.1-11-9-17.5-11.8-6.8-2.9-14-4.3-21.5-4.3s-14.7 1.5-21.5 4.3c-6.6 2.8-12.5 6.8-17.5 11.8-5.1 5.1-9 11-11.8 17.5-2.9 6.8-4.3 14-4.3 21.5 0 7.4 1.5 14.7 4.3 21.5 2.8 6.6 6.8 12.5 11.8 17.5 5.1 5.1 11 9 17.5 11.8 6.8 2.9 14 4.3 21.5 4.3s14.7-1.5 21.5-4.3c6.6-2.8 12.5-6.8 17.5-11.8 5.1-5.1 9-11 11.8-17.5 2.9-6.8 4.3-14 4.3-21.5s-1.4-14.7-4.3-21.5zm-38.8 71c-3.2-5.4-11.6-20.5-11.6-31.7 0-25.8 17.3-3.7 17.3-24.3 0-4.9-2.4-22.1-17.4-25.7-3.7-4.9-12.4-9.6-26.2-7.7 0 0 2.3.7 4.9 2 0 0-5 .7-5.2 4.1 0 0 9.9-.5 15.5 1.3-12.9 1.7-19.6 8.4-18.4 20.8 1.7 17.5 9.1 48.7 11.7 59.6-19.6-7.1-33.7-25.9-33.7-48 0-28.1 22.8-51 51-51s51 22.8 51 51c0 24.1-16.6 44.2-38.9 49.6z" fill="#fff"/><path d="M60.5 71.6c0-6.6 9-8.7 12.4-8.7 9.2 0 22.2-5.9 25.4-5.8 3.3.1 5.4 1.4 5.4 2.9 0 2.2-18.4 10.5-25.5 9.8-6.8-.6-8.4.1-8.4 2.9 0 2.4 4.9 4.6 10.3 4.6 8.1 0 16-3.6 18.4-1.9 2.1 1.5-5.5 6.9-14.2 6.9s-23.8-4.1-23.8-10.7z" id="Beak_2_" fill-rule="evenodd" clip-rule="evenodd" fill="#fed30a"/><g id="g17"><path id="path9" d="M76.5 43.6c-2.4-3.1-6.7-3.2-8.2.4 2.3-1.8 5.1-2.2 8.2-.4z" class="st3"/><path id="path11" d="M49.7 43.7c-3.3-2-8.8-2.2-8.5 4.1 1.7-3.9 3.9-4.6 8.5-4.1z" class="st3"/><path id="path13" d="M74.5 49.5c-1.8 0-3.3 1.5-3.3 3.3 0 1.8 1.5 3.3 3.3 3.3 1.8 0 3.3-1.5 3.3-3.3 0-1.8-1.5-3.3-3.3-3.3zm1.2 3c-.5 0-1-.4-1-1 0-.5.4-1 1-1s1 .4 1 1c-.1.6-.5 1-1 1z" class="st3"/><path id="path15" d="M48.9 51.3c-2.1 0-3.8 1.7-3.8 3.8 0 2.1 1.7 3.8 3.8 3.8 2.1 0 3.8-1.7 3.8-3.8 0-2.1-1.7-3.8-3.8-3.8zm1.4 3.5c-.6 0-1.1-.5-1.1-1.1 0-.6.5-1.1 1.1-1.1.6 0 1.1.5 1.1 1.1 0 .6-.5 1.1-1.1 1.1z" class="st3"/></g><g id="g25"><path id="path19" d="M40.6 35.1c-4.8 3.5-7 8.9-6.3 16.5 1.7 17.5 9.1 48.8 11.7 59.7l2.7.9c-1.6-6.6-9.3-38.8-12.7-63.5-.9-6.6 1.6-10.5 4.6-13.6z" class="st4"/><path id="path21" d="M52.5 30.8c.4 0 .7-.1.7-.1-5.2-2.5-13.4-2.6-15.6-2.6-.2.4-.4.9-.4 1.4-.1.1 9.6-.5 15.3 1.3z" class="st4"/><path id="path23" d="M43.1 25.4c-1.6-1.1-2.9-1.8-3.7-2.2-.7.1-1.3.1-2 .2 0 0 2.3.7 4.9 2h-.2 1z" class="st4"/></g><g id="g31"><path id="path27" d="M83.4 91.9c-1.7-.4-8.3 4.3-10.8 6.1-.1-.5-.2-.9-.3-1.1-.3-1-6.7-.4-8.2 1.2-4-1.9-12-5.6-12.1-3.3-.3 3 0 15.5 1.6 16.4 1.2.7 8-3 11.4-4.9h.1c2.1.5 6 0 7.4-.9.2-.1.3-.3.4-.5 3.1 1.2 9.8 3.6 11.2 3.1 1.8-.5 1.4-15.6-.7-16.1z" fill="#67bd47"/><path id="path29" d="M65.1 106.3c-2.1-.4-1.4-2.5-1.4-7.4-.5.3-.9.7-.9 1.1 0 4.9-.8 7.1 1.4 7.4 2.1.5 6 0 7.6-.9.3-.2.4-.5.5-1-1.5.9-5.2 1.3-7.2.8z" fill="#43a347"/></g></g><g id="g39"><path id="path35" d="M110.5 106.4c-.9 0-1.7.7-1.7 1.6 0 .9.7 1.7 1.7 1.7.9 0 1.7-.7 1.7-1.7 0-.8-.7-1.6-1.7-1.6zm.1 3c-.7 0-1.3-.6-1.3-1.3 0-.7.5-1.3 1.3-1.3.7 0 1.3.6 1.3 1.3-.1.7-.6 1.3-1.3 1.3z" class="st7"/><path id="path37" d="M110.6 107.4c.2 0 .3.1.4.3l.3-.2c-.1-.2-.4-.5-.7-.5-.5 0-1 .4-1 1s.4 1 1 1c.4 0 .6-.2.7-.5l-.3-.2c-.1.2-.2.3-.4.3-.3 0-.6-.3-.6-.6.1-.3.3-.6.6-.6z" class="st7"/></g></g></svg>