<svg xmlns="http://www.w3.org/2000/svg" viewBox="0 0 3986.00 972.00" role="img" aria-label="Stillwater">
  <title>Stillwater</title>
  <path transform="translate(97.000 847.000) scale(1 -1)" d="M432 196Q432 100 359.0 44.0Q286 -12 182 -12Q112 -12 66.5 23.5Q21 59 16 84Q27 117 63.0 158.0Q99 199 128 208Q179 175 223 61Q288 63 288 132Q288 170 257.5 225.5Q227 281 191.0 329.5Q155 378 124.5 438.5Q94 499 94 546Q94 622 155.5 666.0Q217 710 294.0 710.0Q371 710 413.5 677.0Q456 644 456.0 602.0Q456 560 424.0 516.0Q392 472 360 446L328 420Q340 404 357.0 379.0Q374 354 403.0 294.0Q432 234 432 196ZM274 493 289 474Q299 479 320.5 495.0Q342 511 355.5 524.0Q369 537 380.0 555.5Q391 574 391.0 594.5Q391 615 367.0 629.0Q343 643 309.5 643.0Q276 643 253.5 627.5Q231 612 231.0 590.5Q231 569 245.5 540.5Q260 512 274 493Z M806 431Q804 406 789 373Q751 377 717 377H699Q653 154 653 99Q653 70 665.5 70.0Q678 70 732 95L750 62Q661 -12 585 -12Q550 -12 527.5 10.0Q505 32 505.0 68.5Q505 105 513.5 151.0Q522 197 537.0 263.5Q552 330 559 371Q522 368 504 365Q502 377 502.0 397.5Q502 418 505 431H568Q576 485 576 533L575 564V567Q653 594 722 594Q726 574 726.0 544.0Q726 514 709 431Z M950 71Q956 71 996 90L1008 96L1025 61Q1016 53 1001.0 41.0Q986 29 945.0 8.5Q904 -12 869.0 -12.0Q834 -12 814.0 9.5Q794 31 794.0 67.5Q794 104 819.0 197.5Q844 291 844 319Q844 361 818 398L809 410L810 423Q863 438 982 438Q995 423 995.0 381.0Q995 339 968.0 236.5Q941 134 941.0 102.5Q941 71 950 71ZM881.0 547.5Q861 567 861.0 600.0Q861 633 888.5 658.0Q916 683 952.0 683.0Q988 683 1008.0 663.0Q1028 643 1028.0 610.5Q1028 578 999.5 553.0Q971 528 936.0 528.0Q901 528 881.0 547.5Z M1157 663 1151 707Q1229 734 1297 734Q1307 720 1307 685Q1307 605 1256.5 375.5Q1206 146 1206.0 108.5Q1206 71 1215 71L1285 96L1303 61Q1269 34 1220.5 11.0Q1172 -12 1137.5 -12.0Q1103 -12 1080.5 11.0Q1058 34 1058.0 75.5Q1058 117 1107.5 340.5Q1157 564 1157 663Z M1423 663 1417 707Q1495 734 1563 734Q1573 720 1573 685Q1573 605 1522.5 375.5Q1472 146 1472.0 108.5Q1472 71 1481 71L1551 96L1569 61Q1535 34 1486.5 11.0Q1438 -12 1403.5 -12.0Q1369 -12 1346.5 11.0Q1324 34 1324.0 75.5Q1324 117 1373.5 340.5Q1423 564 1423 663Z M1614 82 1625 343Q1625 377 1589 413L1591 425Q1598 427 1604.5 428.5Q1611 430 1619.5 432.0Q1628 434 1639.0 436.0Q1650 438 1662 440Q1690 443 1714.5 443.0Q1739 443 1756.5 423.0Q1774 403 1774.0 359.5Q1774 316 1760.5 235.5Q1747 155 1747.0 115.5Q1747 76 1766 76Q1797 76 1834 115Q1835 131 1847.0 217.0Q1859 303 1859.0 342.0Q1859 381 1853 409Q1930 438 1991 438Q2004 429 2004.0 379.5Q2004 330 1987.0 242.5Q1970 155 1970.0 115.5Q1970 76 1986 76Q2024 76 2069.0 132.5Q2114 189 2117 227L2049 303Q2053 346 2070.0 381.0Q2087 416 2102 430L2116 443Q2159 443 2181.0 420.0Q2203 397 2203 366Q2203 287 2164.0 199.0Q2125 111 2059.0 49.5Q1993 -12 1925 -12Q1891 -12 1867.5 7.5Q1844 27 1836 58Q1766 -12 1700 -12Q1656 -12 1635.0 15.5Q1614 43 1614 82Z M2514 414Q2516 416 2525 440Q2572 440 2651 412Q2626 329 2611.0 238.5Q2596 148 2596.0 109.5Q2596 71 2604 71Q2610 71 2648 90L2660 96L2678 61Q2669 53 2654.5 41.0Q2640 29 2600.0 8.5Q2560 -12 2528 -12Q2466 -12 2456 44Q2392 -12 2340.5 -12.0Q2289 -12 2253.5 28.0Q2218 68 2218 154Q2218 288 2273.0 365.5Q2328 443 2406 443Q2462 443 2514 414ZM2400 73Q2424 73 2454 92Q2461 233 2501 371Q2471 384 2450 384Q2414 384 2388.5 313.5Q2363 243 2363.0 158.0Q2363 73 2400 73Z M3009 431Q3007 406 2992 373Q2954 377 2920 377H2902Q2856 154 2856 99Q2856 70 2868.5 70.0Q2881 70 2935 95L2953 62Q2864 -12 2788 -12Q2753 -12 2730.5 10.0Q2708 32 2708.0 68.5Q2708 105 2716.5 151.0Q2725 197 2740.0 263.5Q2755 330 2762 371Q2725 368 2707 365Q2705 377 2705.0 397.5Q2705 418 2708 431H2771Q2779 485 2779 533L2778 564V567Q2856 594 2925 594Q2929 574 2929.0 544.0Q2929 514 2912 431Z M2987 173Q2987 298 3062.5 370.5Q3138 443 3234 443Q3293 443 3331.0 414.0Q3369 385 3369.0 336.5Q3369 288 3344.5 255.0Q3320 222 3285 204Q3214 169 3155 160L3131 157Q3138 63 3208 63Q3232 63 3259.0 75.0Q3286 87 3301 99L3316 111L3340 79Q3332 68 3308.0 50.0Q3284 32 3263 20Q3205 -12 3136.0 -12.0Q3067 -12 3027.0 37.0Q2987 86 2987 173ZM3209 391Q3171 391 3150.5 326.5Q3130 262 3130 206Q3181 215 3211.0 249.0Q3241 283 3241.0 337.0Q3241 391 3209 391Z M3410 -3H3403Q3401 5 3401.0 33.5Q3401 62 3428.0 187.0Q3455 312 3455 330Q3455 361 3427 398L3418 410L3419 423Q3473 438 3592 438Q3604 412 3604 365Q3615 383 3650.0 413.0Q3685 443 3722 443Q3776 443 3776 349Q3771 343 3762.5 333.5Q3754 324 3728.5 307.0Q3703 290 3679 286Q3678 286 3662.0 313.0Q3646 340 3638 340Q3613 331 3594 310Q3548 103 3548 42Q3548 20 3549 11Q3514 -3 3410 -3Z" fill="#2563eb"/>
</svg>
