<svg xmlns="http://www.w3.org/2000/svg" viewBox="0 0 32 32">
  <rect width="32" height="32" rx="6" fill="#2563eb"/>
  <path transform="matrix(0.003014 0 0 -0.003014 3.3993 29.7765)" d="M3890 8880c-699-53-1231-226-1644-536-476-358-730-892-703-1479 11-243 57-424 157-622 182-362 529-642 1104-892 163-71 321-131 671-256 606-215 703-252 925-355 638-293 933-628 991-1123 50-427-116-865-424-1125-233-196-469-297-777-333-315-36-623 47-798 214-129 123-202 312-189 486 13 172 81 256 219 268 113 11 178-31 288-187 109-153 179-204 327-235 272-58 577 53 738 267 202 269 247 655 115 981-56 136-110 217-220 328-116 117-186 166-335 239-477 230-1256 253-1855 53-641-213-1090-663-1281-1281-143-466-127-1040 42-1492 245-652 783-1134 1534-1373 734-234 1632-220 2406 36 702 233 1258 643 1631 1202 96 144 231 416 287 578 145 420 194 910 136 1355-20 151-80 393-130 527-239 640-750 1130-1587 1520-224 105-418 184-904 365-782 293-969 384-1139 555-182 183-193 411-28 595 134 149 374 242 663 256 447 23 877-142 998-382 77-153 67-286-39-517-80-174-94-281-49-383 41-95 161-169 336-206 135-30 454-32 587-5 473 96 804 394 912 821 64 253 56 551-21 798-208 665-875 1130-1847 1288-69 11-190 27-269 36-170 18-666 26-828 14z" fill="#fff"/>
</svg>
